<svg width="25" height="25" viewBox="0 0 25 25" fill="none" xmlns="http://www.w3.org/2000/svg">
<rect width="25" height="25" rx="12.5" fill="#0097EC"/>
<path d="M5.24649 12.2325L8.19165 13.1388L7.03347 17.2072L3.48839 13.6621L5.24649 12.2325Z" fill="#0075B7"/>
<mask id="mask0" mask-type="alpha" maskUnits="userSpaceOnUse" x="0" y="0" width="25" height="25">
<rect width="25" height="25" rx="12.5" fill="#0097EC"/>
</mask>
<g mask="url(#mask0)">
<path d="M17.0799 4L28.7208 15.6409L15.4017 28.4816L7.57732 20.6572L17.0799 4Z" fill="#0075B7"/>
<path d="M18.6219 9.51C18.4196 9.44024 18.2157 9.37561 18.0102 9.31618C18.0443 9.17694 18.0758 9.03708 18.1047 8.89667C18.5677 6.63651 18.265 4.81573 17.2312 4.21635C16.2401 3.6415 14.6191 4.24088 12.9819 5.6736C12.8206 5.8151 12.6628 5.96068 12.5088 6.1102C12.4057 6.01078 12.3007 5.91329 12.194 5.81778C10.4782 4.28569 8.75837 3.64015 7.7257 4.2413C6.73549 4.81776 6.44219 6.52954 6.85901 8.67148C6.90048 8.8836 6.94731 9.09462 6.99944 9.30434C6.75609 9.37385 6.52107 9.44793 6.29622 9.52674C4.28468 10.232 3 11.3374 3 12.4839C3 13.6681 4.37903 14.8558 6.47431 15.5759C6.64421 15.6341 6.81552 15.6879 6.98809 15.7375C6.93203 15.9634 6.88225 16.1909 6.83883 16.4196C6.44144 18.5244 6.7518 20.1955 7.73941 20.7685C8.75947 21.36 10.4715 20.752 12.1386 19.2865C12.2704 19.1707 12.4026 19.0478 12.5351 18.919C12.7019 19.0809 12.8731 19.238 13.0487 19.3903C14.6635 20.7876 16.2583 21.3519 17.245 20.7775C18.2642 20.1842 18.5953 18.3889 18.1653 16.2046C18.1325 16.0377 18.0942 15.8673 18.0514 15.6938C18.1716 15.6581 18.2896 15.6213 18.4047 15.5829C20.5829 14.8572 22 13.6839 22 12.4839C22 11.3332 20.6739 10.2204 18.6219 9.51Z" fill="white"/>
<path d="M18.3322 14.8087C18.2283 14.8433 18.1216 14.8767 18.013 14.9091C17.7724 14.1434 17.4478 13.3292 17.0506 12.4881C17.4297 11.6668 17.7417 10.8631 17.9755 10.1023C18.1699 10.159 18.3586 10.2186 18.5405 10.2816C20.2992 10.8903 21.3719 11.7905 21.3719 12.484C21.3719 13.2228 20.2133 14.1819 18.3322 14.8087H18.3322ZM17.5516 16.3639C17.7418 17.33 17.769 18.2034 17.643 18.8862C17.5298 19.4997 17.3022 19.9087 17.0208 20.0725C16.4218 20.4211 15.141 19.968 13.7598 18.7728C13.6014 18.6357 13.4418 18.4894 13.2819 18.3347C13.8174 17.7457 14.3526 17.0609 14.8749 16.3006C15.7936 16.2186 16.6616 16.0846 17.4488 15.9016C17.4875 16.059 17.522 16.2131 17.5516 16.3639ZM9.65822 20.0123C9.07309 20.2201 8.60706 20.226 8.32538 20.0627C7.72587 19.7151 7.47675 18.3729 7.81662 16.5727C7.85704 16.3599 7.90332 16.1483 7.9554 15.9382C8.73381 16.1113 9.59548 16.2359 10.5164 16.311C11.0422 17.055 11.5928 17.7389 12.1478 18.3378C12.0298 18.4525 11.9091 18.5643 11.7857 18.673C11.0483 19.3212 10.3095 19.781 9.65831 20.0123H9.65822ZM6.91693 14.8041C5.99024 14.4856 5.22496 14.0717 4.70038 13.62C4.22905 13.2141 3.99103 12.8111 3.99103 12.484C3.99103 11.7882 5.02276 10.9006 6.7435 10.2973C6.95948 10.2219 7.17761 10.1529 7.3976 10.0903C7.63546 10.8682 7.94741 11.6815 8.32387 12.5039C7.94253 13.3386 7.62612 14.1648 7.38608 14.9518C7.22852 14.9064 7.07209 14.8572 6.91693 14.8041ZM7.83588 8.51415C7.47868 6.67859 7.71586 5.29399 8.31277 4.94655C8.94861 4.57645 10.3545 5.10421 11.8363 6.42723C11.931 6.51181 12.0261 6.60036 12.1214 6.69196C11.5693 7.28814 11.0237 7.96686 10.5025 8.70657C9.60869 8.78987 8.75307 8.92367 7.9665 9.10289C7.91805 8.90775 7.8745 8.71142 7.83588 8.51407V8.51415ZM16.0335 10.5497C15.8477 10.2269 15.6551 9.9083 15.4556 9.59394C16.062 9.6709 16.643 9.77324 17.1885 9.8985C17.0247 10.4263 16.8206 10.9783 16.5802 11.5441C16.4046 11.209 16.2223 10.8774 16.0335 10.5497ZM12.6905 7.27536C13.065 7.68328 13.44 8.1388 13.8089 8.63298C13.0606 8.59743 12.311 8.59726 11.5627 8.63248C11.932 8.14286 12.3102 7.68801 12.6905 7.27536ZM9.32609 10.5552C9.13965 10.8804 8.96079 11.2099 8.78965 11.5435C8.55323 10.9796 8.35095 10.4252 8.18577 9.88987C8.728 9.76783 9.30624 9.66811 9.90869 9.59242C9.70702 9.90873 9.51277 10.2298 9.32609 10.5552ZM9.92602 15.4339C9.30363 15.364 8.71665 15.2694 8.17458 15.1507C8.34237 14.6058 8.54911 14.0395 8.79058 13.4636C8.96244 13.7974 9.14209 14.1271 9.32937 14.4524C9.52047 14.7843 9.71941 15.1115 9.92602 15.4339ZM12.713 17.7503C12.3282 17.3328 11.9444 16.871 11.5695 16.3743C11.9334 16.3886 12.3044 16.3959 12.6814 16.3959C13.0688 16.3959 13.4518 16.3872 13.8287 16.3703C13.4586 16.876 13.0849 17.3385 12.713 17.7503ZM16.5879 13.4342C16.8419 14.0164 17.0561 14.5797 17.2261 15.1153C16.6751 15.2418 16.0802 15.3436 15.4533 15.4192C15.6542 15.099 15.8487 14.7748 16.0368 14.4468C16.228 14.1134 16.4117 13.7758 16.5879 13.4342ZM15.3335 14.0389C15.0456 14.5418 14.7415 15.0352 14.4218 15.5182C13.8579 15.5587 13.2752 15.5796 12.6814 15.5796C12.0901 15.5796 11.5148 15.5611 10.9608 15.5249C10.6327 15.0431 10.3229 14.5489 10.032 14.0434C9.74244 13.5407 9.47199 13.027 9.2212 12.5036C9.47135 11.9801 9.74099 11.4662 10.0296 10.963V10.9631C10.318 10.4599 10.6254 9.96778 10.951 9.48797C11.5162 9.445 12.0957 9.4225 12.6815 9.4225C13.2699 9.4225 13.8502 9.44517 14.4152 9.48847C14.7375 9.96755 15.043 10.4579 15.3309 10.9587C15.6204 11.4607 15.8937 11.9721 16.1502 12.492C15.8963 13.0173 15.624 13.5332 15.3336 14.0389H15.3335ZM17.0083 4.92228C17.6447 5.29137 17.8922 6.77966 17.4923 8.73143C17.4661 8.85858 17.4376 8.98524 17.4069 9.11135C16.6185 8.92841 15.7623 8.79224 14.8659 8.70767C14.3436 7.95993 13.8026 7.28002 13.2594 6.69153C13.4018 6.55355 13.5475 6.41915 13.6964 6.28844C15.0995 5.06056 16.4108 4.57577 17.0083 4.92228Z" fill="#0097EC"/>
<path d="M12.5 10.7589C13.4432 10.7589 14.2077 11.5268 14.2077 12.4741C14.2077 13.4214 13.4432 14.1894 12.5 14.1894C11.5569 14.1894 10.7923 13.4214 10.7923 12.4741C10.7923 11.5268 11.5569 10.7589 12.5 10.7589Z" fill="white"/>
</g>
</svg>
