<svg width="26" height="26" viewBox="0 0 220 220" fill="none" xmlns="http://www.w3.org/2000/svg" id="logo"><path d="M33 33h154v154H33V33Z" fill="#fff"/><path d="M130.28 47.55c.01-.04.02-.06.03-.1.03-.17.06-.33.1-.49-.06.2-.1.39-.13.59Zm0 0c.01-.04.02-.06.03-.1.03-.17.06-.33.1-.49-.06.2-.1.39-.13.59ZM110 .87C49.73.87.88 49.73.88 109.99c0 60.27 48.86 109.13 109.12 109.13 4.8 0 9.51-.31 14.15-.92l-55.17-50.45c9.73 6.92 21.34 11.48 34.08 12.73-20.17-3.12-35.87-14.16-37.35-15.22-.03-.02-.05-.04-.07-.05-3.64-2.93-6.97-6.2-9.95-9.77.14-.27.41-.56.88-.85 2.86-1.82 3.81-4.68 3.79-7.86-.02-4.41 1.09-8.45 3.07-12.36 2.54-4.97 1.88-9.73-1.75-14.01-.81-.96-1.53-2.06-2.49-2.8-5.42-4.16-6.11-9.74-5.05-15.95 1.12-6.53-1.01-10.17-7.12-12.49-2.33-.88-3.56-1.34-4.03-2.11-.53-.87-.04-2.14.99-4.87.47-1.22.93-2.09 1.95-2.36.44-.13.99-.14 1.68-.03 4.03.63 7.36-1.52 10.15-4.07 3.5-3.18 7.53-5.05 11.93-6.47 6.59-2.13 9.41-6.03 9.4-12.96-.02-2.95-.13-5.93-.46-8.85-.04-.36-.04-.65-.02-.92 11.48-5.7 24.65-8.35 38.35-7 5.3.53 10.41 1.63 15.28 3.22-.05.08-.12.16-.17.24-.03.04-.05.1-.09.15-.15.28-.31.61-.4.77l4.72 1.62c0-.01.01-.01.02-.01.69-.48 1.69-.38 2.71-.05 1.3.42 2.63 1.2 3.41 1.64 7.29 4.07 13.84 9.37 19.41 15.57.04.04.07.08.1.12 2.06 2.29 3.97 4.7 5.73 7.21l51.02 49.89c.29-3.24.44-6.53.44-9.86C219.12 49.73 170.27.87 110 .87ZM46.83 94.45c2.11.95 3.13 2.55 2.67 4.97-.22 1.14-.21 2.32-.42 3.46-1.33 7.37 1.17 13.23 6.63 18.24 5.04 4.59 5.3 7.04 2.29 13.22-1.59 3.27-2.48 6.69-2.4 10.34.01.35.04.73-.02 1.08-.28 1.99-.04 4.41-2.63 5.03-.29.07-.56.1-.79.07-9.5-13.4-14.38-30.17-12.65-47.79.36-3.6.97-7.08 1.83-10.48.33-.04.75.05 1.24.25 1.41.54 2.87.97 4.25 1.61Zm27.35-35.78c-.13 2.12-1.5 3.83-3.52 4.76-1.55.72-3.1 1.45-4.72 1.96-4 1.23-7.55 3.18-10.65 6.02-1.85 1.7-3.85 3.23-6.86 3.56a71.014 71.014 0 0 1 25.61-25.99c.11 3.49.34 6.61.14 9.69Zm56.13-11.22c.03-.17.06-.33.1-.49-.05.2-.1.39-.12.59 0-.04.01-.06.02-.1Zm-.03.1c.01-.04.02-.06.03-.1.03-.17.06-.33.1-.49-.06.2-.1.39-.13.59Z" fill="#35A7FF"/><path d="M218.69 119.86c-4.57 50.98-44.17 91.84-94.54 98.35l-58.51-52.99c.02.02.04.04.07.05 1.48 1.06 17.18 12.09 37.35 15.22 8.21 1.27 16.35.26 24-1.72.78-.2 1.56-.4 2.33-.62 8.01-2.58 16.33-6.75 24.87-12.87 14.38-11.49 24.28-28.57 26.24-48.33.45-4.7.44-9.34 0-13.87-1.19-1.99-3.47-2.66-6.91-2.12-.98.14-1.96.28-2.92.54-3.1.85-5.77 1.01-8.12-2.06-1.34-1.76-3.92-3.09-6.25-1.74-2.27 1.3-.94 3.48-.37 5.33.04.17.09.35.13.51 1.09 4.19-1.26 7.15-5.58 7.07-2.4-.05-4.56-.8-6.47-2.28-.7-.53-1.53-1.23-2.38-.37-.71.7-1.13 1.66-.76 2.71.24.66.65 1.27 1.02 1.88 1.65 2.71 4.09 4.39 6.95 5.69 4.52 2.06 4.99 4.05 2.12 8.14-1.74 2.49-3.59 4.93-5.81 7.05-3.5 3.3-5.71 7.23-6.46 12.07-.65 4.15-1.42 8.3-4.55 11.56-3.63 3.8-7.78 6.87-12.57 9.02-4.82 2.16-8.75.81-11.38-3.81-2.38-4.16-3.19-8.69-3.02-13.44.12-2.77.71-5.58-.33-8.27-1.04-2.63-1.47-5.26-1.11-8.12.4-3.12-.74-4.65-3.76-5.63-1.18-.38-2.47-.77-3.67-.67-5.58.5-10.07-1.99-14.43-4.97-2.67-1.84-4.57-4.29-5.46-7.43-3.47-12.41 5.88-25.99 18.72-27.23 6.05-.58 11.75.81 17.23 3.23 4.84 2.14 10.01 2.7 15.17 3.23 2.79.3 3.91-1.15 3.57-3.94-.35-2.89-2.37-4.32-4.77-5.31-3.54-1.47-7.35-1.44-11.09-1.79-3.65-.36-7.39-.07-10.86-1.58-3.59-1.55-4.47-5.35-2.06-8.42a7.987 7.987 0 0 1 3.4-2.56c2.4-.98 3.54-2.84 4.02-5.29.86-4.37 2.64-6.08 7.04-6.9 2.85-.53 5.72-.6 8.55-.09 2.41.43 3.4-.31 3.02-2.8-.05-.32-.1-.65-.13-.99-.03-.23-.05-.46-.07-.7-.16-1.66-.17-3.44.14-5.16.03-.17.06-.33.1-.49v-.01c.04-.23.11-.46.18-.69.02-.12.05-.22.1-.34.04-.09.07-.18.11-.28 0-.02.01-.04.02-.05.02-.07.04-.14.08-.22.03-.09.06-.18.12-.28.04-.12.09-.23.14-.36l.12-.27c.09-.2.2-.4.3-.6.09-.16.25-.49.4-.77.04-.05.06-.11.09-.15.05-.08.12-.16.17-.24l6.79 2.71c-1.02-.33-2.02-.43-2.71.05-.01 0-.02 0-.02.01-1.19.84-1.33 3.26-1.33 4.53-.02 3.19 1.29 7.24-1.05 9.94-3.72 4.3-11.98-.6-16.09 3.33-1.45 1.39-1.9 3.5-2.75 5.32-1.36 2.92-3.96 5.24-7.02 6.28 1.14 1.53 3.27 1.83 5.17 1.95 4.12.23 8.29.11 12.33.9 4.05.78 8.09 2.61 10.52 5.94 2.42 3.34 2.75 8.39-.04 11.44-2.42 2.65-6.43 3.18-10 2.79-8.96-1-17.14-6.64-26.15-6.38-6.71.2-13.4 4.18-15.92 10.41-2.51 6.21-.01 14.3 6 17.27 5.32 2.63 12.26 1.25 16.92 4.92 2.7 2.14 4.04 5.6 4.49 9.01.45 3.41.14 6.86.19 10.31.05 5.24.94 10.47 2.61 15.42.39 1.17.94 2.44 2.09 2.86.74.27 1.56.11 2.31-.11 6.91-1.87 12.69-7.44 14.81-14.27 1.11-3.6 1.29-7.49 2.95-10.86 2.04-4.08 5.98-6.84 8.85-10.39.42-.52.83-1.08.94-1.74.33-1.89-1.73-3.19-3.36-4.19-2.5-1.53-4.73-3.66-5.86-6.35-1.14-2.7-1.05-6.01.68-8.37 1.72-2.37 5.21-3.44 7.78-2.04.99.53 1.8 1.38 2.84 1.81 1.05.44 2.52.24 2.92-.82.28-.7-.03-1.49-.21-2.22-1.28-4.78 3.38-10.1 8.29-9.46 2.02.26 3.83 1.31 5.7 2.09 4.57 1.91 9.75 2.29 14.53 1.04.02 0 .04-.01.06-.01-.07-.3-.15-.6-.23-.9-.3-1.21-.64-2.41-1.01-3.6-.11-.34-.21-.69-.32-1.02-.43-1.32-.89-2.62-1.4-3.9-.14-.38-.29-.75-.44-1.12-.32-.8-.66-1.6-1.02-2.39a56.027 56.027 0 0 0-1.19-2.56c-.25-.51-.51-1.01-.77-1.52-.34-.65-.68-1.29-1.04-1.92-.36-.66-.73-1.3-1.11-1.94-.21-.36-.43-.71-.64-1.06a.219.219 0 0 0-.03-.05c-.22-.35-.44-.69-.66-1.03a55.087 55.087 0 0 0-1.92-2.87 77.744 77.744 0 0 0-5.73-7.21c-.03-.04-.06-.08-.1-.12-.37-.43-.73-.83-1.09-1.2l57.91 58.46Z" fill="#0692fe"/></svg>